<?xml version="1.0" encoding="UTF-8"?>
<svg width="210mm" height="297mm" version="1.1" viewBox="0 0 210 297" xmlns="http://www.w3.org/2000/svg">
 <g fill="none" stroke="#000" stroke-linecap="round" stroke-miterlimit="4.7">
  <path transform="matrix(.96 .036 -.032 .84 1.3 -.43)" d="m57 62-50-27 48-30 0.93 29z" stroke-width="1.3" style="paint-order:stroke fill markers"/>
  <path d="m143 58-10-17-18-9.1 17-10 9.1-18 10 17 18 9.1-17 10z" stroke-width=".83" style="paint-order:stroke fill markers"/>
  <path d="m70 53 2.9-18-13-12 18-2.6 7.8-16 7.9 16 18 2.5-13 12 3.1 18-16-8.2z" style="paint-order:stroke fill markers"/>
  <path transform="rotate(-44)" d="m-31 114a27 29 0 0 1-32-11 27 29 0 0 1 4.3-36 27 29 0 0 1 34-2.3 27 29 0 0 1 8.5 36l-24-12z" stroke-width="1.3" style="paint-order:stroke fill markers"/>
 </g>
</svg>
